<svg width="20" height="20" fill="none" xmlns="http://www.w3.org/2000/svg"><path d="m16.2 10.225.305-.405c.198-.261.308-.581.308-.914 0-.502-.286-1.014-.786-1.307l.172 2.626Zm0 0 .145.486m-.146-.486.146.486m0 0c.041.137.064.286.067.445-.002.33-.11.647-.307.907l-.306.404.146.486a1.513 1.513 0 0 1-.244 1.35l-.307.405.146.486a1.511 1.511 0 0 1-.858 1.828l-.006.002a.3.3 0 0 1-.12.023H6.333m10.013-6.336L6.332 17.047m0 0V9.844L7.98 3.88v-.001A1.27 1.27 0 0 1 9.2 2.95h.003a1.082 1.082 0 0 1 .79.34h.002c.21.223.317.508.303.815v.001l-.117 2.399-.051 1.049h5.734c.057 0 .114.015.163.044l-9.695 9.448Z" stroke="#242424" stroke-width="2"/></svg>