<svg width="20" height="20" fill="none" xmlns="http://www.w3.org/2000/svg"><path d="M17.303 10.424c.328-.434.51-.965.51-1.518 0-.877-.49-1.707-1.28-2.17a1.321 1.321 0 0 0-.67-.181H11.18l.117-2.4a2.091 2.091 0 0 0-.576-1.551 2.082 2.082 0 0 0-1.522-.653 2.27 2.27 0 0 0-2.183 1.662L5.338 9.688h-.006v8.359h9.225c.18 0 .355-.035.517-.106a2.511 2.511 0 0 0 1.424-3.035 2.513 2.513 0 0 0 .404-2.24c.328-.434.51-.965.51-1.518a2.668 2.668 0 0 0-.11-.724Zm-15.116-.111v7.109c0 .346.28.625.626.625h1.269v-8.36h-1.27a.624.624 0 0 0-.624.626Z" fill="#FF476C"/></svg>