<svg width="36" height="36" fill="none" xmlns="http://www.w3.org/2000/svg"><path d="M31.145 18.763c.59-.78.918-1.737.918-2.732 0-1.578-.883-3.072-2.303-3.906a2.379 2.379 0 0 0-1.206-.327h-8.43l.21-4.32a3.763 3.763 0 0 0-1.037-2.792 3.748 3.748 0 0 0-2.738-1.174 4.087 4.087 0 0 0-3.93 2.992l-3.02 10.933h-.011v15.047h16.604c.323 0 .64-.063.932-.19a4.52 4.52 0 0 0 2.563-5.463 4.524 4.524 0 0 0 .727-4.032c.59-.78.918-1.737.918-2.732a4.8 4.8 0 0 0-.197-1.304Zm-27.207-.2v12.796c0 .623.502 1.125 1.124 1.125h2.286V17.437H5.063c-.623 0-1.125.503-1.125 1.125Z" fill="#FF375F"/></svg>