<svg width="503" height="218" fill="none" xmlns="http://www.w3.org/2000/svg"><g filter="url('#filter0_bd_37_25')"><path fill="#fff" fill-opacity=".8" d="M64 68h375v90H64z"/></g><path d="M375.661 86.61h-12.61A3.05 3.05 0 0 0 360 89.661v17.288a3.051 3.051 0 0 0 3.051 3.051h12.61a3.051 3.051 0 0 0 3.051-3.051V89.661a3.05 3.05 0 0 0-3.051-3.05Z" fill="url('#paint0_linear_37_25')"/><g filter="url('#filter1_d_37_25')"><path d="M364.881 86h4.068c.225 0 .407.182.407.407v8.634a.407.407 0 0 1-.682.3l-.659-.604a1.627 1.627 0 0 0-2.199 0l-.66.604a.406.406 0 0 1-.681-.3v-8.634c0-.225.182-.407.406-.407Z" fill="#000"/></g><path d="M364.881 86h4.068c.225 0 .407.182.407.407v8.634a.407.407 0 0 1-.682.3l-.659-.604a1.627 1.627 0 0 0-2.199 0l-.66.604a.406.406 0 0 1-.681-.3v-8.634c0-.225.182-.407.406-.407Z" fill="url('#paint1_linear_37_25')"/><path d="M129.99 88.219h17.505a3.328 3.328 0 0 1 3.328 3.327v15.086a3.328 3.328 0 0 1-3.328 3.328H129.99a3.328 3.328 0 0 1-3.328-3.328V91.546a3.328 3.328 0 0 1 3.328-3.328Z" fill="url('#paint2_linear_37_25')"/><path d="m124.975 87.244.269-.27a3.327 3.327 0 0 1 2.353-.974h2.279c.882 0 1.729.35 2.353.975l.269.269c.624.624 1.47.975 2.353.975h10.003a3.328 3.328 0 0 1 3.328 3.327v15.126a3.328 3.328 0 0 1-3.328 3.328h-17.526a3.328 3.328 0 0 1-3.328-3.328V89.597c0-.883.351-1.73.975-2.353Z" fill="#64D2FF"/><g filter="url('#filter2_d_37_25')"><path d="M138.753 97.758h-5.324a1.664 1.664 0 1 0 0 3.328h5.324a1.664 1.664 0 0 0 0-3.328Z" fill="#000"/></g><path d="M138.753 97.758h-5.324a1.664 1.664 0 1 0 0 3.328h5.324a1.664 1.664 0 0 0 0-3.328Z" fill="url('#paint3_linear_37_25')"/><path d="M241.35 86h19.655c1.85 0 3.35 1.5 3.35 3.35v13.178c0 1.85-1.5 3.35-3.35 3.35h-13.877c-.656 0-1.298.192-1.845.554l-5.046 3.329a1.443 1.443 0 0 1-2.237-1.203V89.35c0-1.85 1.5-3.35 3.35-3.35Z" fill="url('#paint4_linear_37_25')"/><g filter="url('#filter3_d_37_25')"><path d="M257.654 98.73a2.01 2.01 0 1 1 0-4.02 2.01 2.01 0 0 1 0 4.02Zm-12.954 0a2.01 2.01 0 1 1 0-4.02 2.01 2.01 0 0 1 0 4.02Zm6.477 0a2.01 2.01 0 1 1 0-4.02 2.01 2.01 0 0 1 0 4.02Z" fill="#000"/></g><path d="M257.654 98.73a2.01 2.01 0 1 1 0-4.02 2.01 2.01 0 0 1 0 4.02Zm-12.954 0a2.01 2.01 0 1 1 0-4.02 2.01 2.01 0 0 1 0 4.02Zm6.477 0a2.01 2.01 0 1 1 0-4.02 2.01 2.01 0 0 1 0 4.02Z" fill="url('#paint5_linear_37_25')"/><defs><linearGradient id="paint0_linear_37_25" x1="387" y1="75.5" x2="363.886" y2="98.321" gradientUnits="userSpaceOnUse"><stop stop-color="#fff"/><stop offset="1" stop-color="#B8B6BE"/></linearGradient><linearGradient id="paint1_linear_37_25" x1="364.475" y1="85.314" x2="371.528" y2="90.853" gradientUnits="userSpaceOnUse"><stop stop-color="#E5DCEB"/><stop offset="1" stop-color="#fff"/></linearGradient><linearGradient id="paint2_linear_37_25" x1="134.898" y1="88.219" x2="139.292" y2="110.157" gradientUnits="userSpaceOnUse"><stop stop-color="#EFF0F7"/><stop offset="1" stop-color="#DAD0E4"/></linearGradient><linearGradient id="paint3_linear_37_25" x1="133.547" y1="94.264" x2="134.105" y2="106.467" gradientUnits="userSpaceOnUse"><stop stop-color="#fff"/><stop offset="1" stop-color="#fff"/></linearGradient><linearGradient id="paint4_linear_37_25" x1="278.5" y1="78.5" x2="242.807" y2="112.54" gradientUnits="userSpaceOnUse"><stop stop-color="#fff"/><stop offset=".826" stop-color="#B8B6BE"/></linearGradient><linearGradient id="paint5_linear_37_25" x1="250.352" y1="93.245" x2="250.399" y2="99.961" gradientUnits="userSpaceOnUse"><stop stop-color="#fff"/><stop offset="1" stop-color="#fff"/></linearGradient><filter id="filter0_bd_37_25" x="0" y="0" width="503" height="218" filterUnits="userSpaceOnUse" color-interpolation-filters="sRGB"><feFlood flood-opacity="0" result="BackgroundImageFix"/><feGaussianBlur in="BackgroundImageFix" stdDeviation="8"/><feComposite in2="SourceAlpha" operator="in" result="effect1_backgroundBlur_37_25"/><feColorMatrix in="SourceAlpha" values="0 0 0 0 0 0 0 0 0 0 0 0 0 0 0 0 0 0 127 0" result="hardAlpha"/><feOffset dy="-4"/><feGaussianBlur stdDeviation="32"/><feColorMatrix values="0 0 0 0 0.182605 0 0 0 0 0.251271 0 0 0 0 0.331878 0 0 0 0.08 0"/><feBlend in2="effect1_backgroundBlur_37_25" result="effect2_dropShadow_37_25"/><feBlend in="SourceGraphic" in2="effect2_dropShadow_37_25" result="shape"/></filter><filter id="filter1_d_37_25" x="363.475" y="85" width="12.881" height="17.448" filterUnits="userSpaceOnUse" color-interpolation-filters="sRGB"><feFlood flood-opacity="0" result="BackgroundImageFix"/><feColorMatrix in="SourceAlpha" values="0 0 0 0 0 0 0 0 0 0 0 0 0 0 0 0 0 0 127 0" result="hardAlpha"/><feOffset dx="3" dy="3"/><feGaussianBlur stdDeviation="2"/><feColorMatrix values="0 0 0 0 0 0 0 0 0 0 0 0 0 0 0 0 0 0 0.194124 0"/><feBlend in2="BackgroundImageFix" result="effect1_dropShadow_37_25"/><feBlend in="SourceGraphic" in2="effect1_dropShadow_37_25" result="shape"/></filter><filter id="filter2_d_37_25" x="130.765" y="96.758" width="16.652" height="11.328" filterUnits="userSpaceOnUse" color-interpolation-filters="sRGB"><feFlood flood-opacity="0" result="BackgroundImageFix"/><feColorMatrix in="SourceAlpha" values="0 0 0 0 0 0 0 0 0 0 0 0 0 0 0 0 0 0 127 0" result="hardAlpha"/><feOffset dx="3" dy="3"/><feGaussianBlur stdDeviation="2"/><feColorMatrix values="0 0 0 0 0 0 0 0 0 0 0 0 0 0 0 0 0 0 0.194124 0"/><feBlend in2="BackgroundImageFix" result="effect1_dropShadow_37_25"/><feBlend in="SourceGraphic" in2="effect1_dropShadow_37_25" result="shape"/></filter><filter id="filter3_d_37_25" x="241.69" y="93.71" width="24.974" height="12.02" filterUnits="userSpaceOnUse" color-interpolation-filters="sRGB"><feFlood flood-opacity="0" result="BackgroundImageFix"/><feColorMatrix in="SourceAlpha" values="0 0 0 0 0 0 0 0 0 0 0 0 0 0 0 0 0 0 127 0" result="hardAlpha"/><feOffset dx="3" dy="3"/><feGaussianBlur stdDeviation="2"/><feColorMatrix values="0 0 0 0 0 0 0 0 0 0 0 0 0 0 0 0 0 0 0.19 0"/><feBlend in2="BackgroundImageFix" result="effect1_dropShadow_37_25"/><feBlend in="SourceGraphic" in2="effect1_dropShadow_37_25" result="shape"/></filter></defs></svg>