<svg width="68" height="14" fill="none" xmlns="http://www.w3.org/2000/svg"><path fill-rule="evenodd" clip-rule="evenodd" d="M46.59 1.16h14.82c1.249 0 1.701.13 2.158.374.456.244.814.602 1.058 1.058.244.457.374.91.374 2.157v4.322c0 1.248-.13 1.7-.374 2.157a2.544 2.544 0 0 1-1.058 1.058c-.457.244-.91.374-2.157.374H46.589c-1.248 0-1.7-.13-2.157-.374a2.544 2.544 0 0 1-1.058-1.058C43.13 10.77 43 10.318 43 9.07V4.749c0-1.248.13-1.7.374-2.157a2.544 2.544 0 0 1 1.058-1.058c.457-.244.91-.374 2.157-.374Zm0 1c-.988 0-1.332.067-1.686.256-.282.15-.497.366-.648.648-.19.354-.256.698-.256 1.685v4.322c0 .986.066 1.331.256 1.685.15.282.366.497.648.648.354.19.698.256 1.685.256h14.822c.986 0 1.331-.066 1.685-.256.282-.15.497-.366.648-.648.19-.354.256-.699.256-1.685V4.749c0-.987-.066-1.331-.256-1.685a1.544 1.544 0 0 0-.648-.648c-.354-.19-.698-.256-1.685-.256H46.589ZM67.5 6.85c0 1.237-1.5 2-1.5 2v-4s1.5.763 1.5 2Z" fill="#fff" fill-opacity=".36"/><rect x="45" y="3.077" width="18" height="7.667" rx="1.6" fill="#fff"/><path fill-rule="evenodd" clip-rule="evenodd" d="M14.623 2.566c-.023.116-.023.255-.023.534v7.7c0 .279 0 .418.023.534a1.2 1.2 0 0 0 .943.943c.116.023.255.023.534.023s.418 0 .534-.023a1.2 1.2 0 0 0 .943-.943c.023-.116.023-.255.023-.534V3.1c0-.279 0-.418-.023-.534a1.2 1.2 0 0 0-.943-.943C16.518 1.6 16.38 1.6 16.1 1.6s-.418 0-.534.023a1.2 1.2 0 0 0-.943.943ZM9.9 5.5c0-.279 0-.418.023-.534a1.2 1.2 0 0 1 .943-.943C10.982 4 11.12 4 11.4 4s.418 0 .534.023a1.2 1.2 0 0 1 .943.943c.023.116.023.255.023.534v5.3c0 .279 0 .418-.023.534a1.2 1.2 0 0 1-.943.943c-.116.023-.255.023-.534.023s-.418 0-.534-.023a1.2 1.2 0 0 1-.943-.943C9.9 11.218 9.9 11.08 9.9 10.8V5.5ZM5.323 7.266C5.3 7.382 5.3 7.52 5.3 7.8v3c0 .279 0 .418.023.534a1.2 1.2 0 0 0 .943.943c.116.023.255.023.534.023s.418 0 .534-.023a1.2 1.2 0 0 0 .943-.943c.023-.116.023-.255.023-.534v-3c0-.279 0-.418-.023-.534a1.2 1.2 0 0 0-.943-.943C7.218 6.3 7.08 6.3 6.8 6.3s-.418 0-.534.023a1.2 1.2 0 0 0-.943.943Zm-4.8 2C.5 9.382.5 9.52.5 9.8v1c0 .279 0 .418.023.534a1.2 1.2 0 0 0 .943.943c.116.023.255.023.534.023s.418 0 .534-.023a1.2 1.2 0 0 0 .943-.943c.023-.116.023-.255.023-.534v-1c0-.279 0-.418-.023-.534a1.2 1.2 0 0 0-.943-.943C2.418 8.3 2.28 8.3 2 8.3s-.418 0-.534.023a1.2 1.2 0 0 0-.943.943ZM30.3 3.696c2.235 0 4.384.859 6.003 2.399a.31.31 0 0 0 .437-.004l1.166-1.176a.324.324 0 0 0-.003-.46 10.988 10.988 0 0 0-15.206 0 .324.324 0 0 0-.003.46L23.86 6.09a.31.31 0 0 0 .437.004A8.713 8.713 0 0 1 30.3 3.696Zm0 3.828c1.228 0 2.412.456 3.322 1.28a.313.313 0 0 0 .437-.006l1.164-1.176a.325.325 0 0 0-.004-.463 7.22 7.22 0 0 0-9.834 0 .325.325 0 0 0-.005.463l1.164 1.176c.12.12.314.123.437.006a4.948 4.948 0 0 1 3.32-1.28Zm2.238 2.807a.317.317 0 0 0-.01-.46 3.45 3.45 0 0 0-4.456 0 .317.317 0 0 0-.01.46l2.015 2.033a.314.314 0 0 0 .447 0l2.014-2.033Z" fill="#fff"/></svg>