<svg width="14" height="12" fill="none" xmlns="http://www.w3.org/2000/svg"><path fill-rule="evenodd" clip-rule="evenodd" d="M7.293.293a1 1 0 0 0 0 1.414L10.586 5H1a1 1 0 0 0 0 2h9.586l-3.293 3.293a1 1 0 1 0 1.414 1.414l5-5a.364.364 0 0 0 .007-.006l-.008.007m0-1.416-4.999-5a1 1 0 0 0-1.414 0" fill="#fff"/><mask id="mask0_134_320" style="mask-type:luminance" maskUnits="userSpaceOnUse" x="0" y="0" width="14" height="12"><path fill-rule="evenodd" clip-rule="evenodd" d="M7.293.293a1 1 0 0 0 0 1.414L10.586 5H1a1 1 0 0 0 0 2h9.586l-3.293 3.293a1 1 0 1 0 1.414 1.414l5-5a.364.364 0 0 0 .007-.006l-.008.007m0-1.416-4.999-5a1 1 0 0 0-1.414 0" fill="#fff"/></mask></svg>