<svg width="36" height="36" fill="none" xmlns="http://www.w3.org/2000/svg"><g clip-path="url('#clip0_20_230')" fill-rule="evenodd" clip-rule="evenodd"><path d="M18 36c9.941 0 18-8.059 18-18S27.941 0 18 0 0 8.059 0 18s8.059 18 18 18Z" fill="#787880" fill-opacity=".2"/><path d="M18.736 8.342a.974.974 0 0 0-1.503.028c-.038.048-6.843 6.855-6.843 6.855-.386.389-.386 1.105 0 1.494s1.178.389 1.564 0l4.91-4.981V26.72c0 .553.585.979 1.131.979.547 0 1.162-.426 1.162-.98V11.739l4.953 5.138c.385.39 1.114.39 1.5 0 .387-.388.387-1.262 0-1.651 0 0-6.837-6.84-6.874-6.883Z" fill="#fff"/></g><defs><clipPath id="clip0_20_230"><path fill="#fff" d="M0 0h36v36H0z"/></clipPath></defs></svg>