<svg width="53" height="9" fill="none" xmlns="http://www.w3.org/2000/svg"><g clip-path="url('#clip0_134_286')" fill="#fff"><circle cx="50.5" cy="4.5" r="2.5"/><circle cx="35.5" cy="4.5" r="2.5"/><path fill-rule="evenodd" clip-rule="evenodd" d="M18.5 9a4.5 4.5 0 1 0 0-9 4.5 4.5 0 0 0 0 9Zm0-1a3.5 3.5 0 1 1 0-7 3.5 3.5 0 0 1 0 7Zm0-1.5a2 2 0 1 0 0-4 2 2 0 0 0 0 4Z"/><circle cx="2.5" cy="4.5" r="2.5"/></g><defs><clipPath id="clip0_134_286"><path fill="#fff" d="M0 0h53v9H0z"/></clipPath></defs></svg>