<svg width="35" height="35" fill="none" xmlns="http://www.w3.org/2000/svg"><path d="M13.75.625H2.5A1.875 1.875 0 0 0 .625 2.5v11.25A1.875 1.875 0 0 0 2.5 15.625h11.25a1.875 1.875 0 0 0 1.875-1.875V2.5A1.875 1.875 0 0 0 13.75.625Zm18.75 18.75H21.25a1.875 1.875 0 0 0-1.875 1.875V32.5a1.875 1.875 0 0 0 1.875 1.875H32.5a1.875 1.875 0 0 0 1.875-1.875V21.25a1.875 1.875 0 0 0-1.875-1.875ZM26.875.625c-4.136 0-7.5 3.364-7.5 7.5s3.364 7.5 7.5 7.5 7.5-3.364 7.5-7.5-3.364-7.5-7.5-7.5Zm-18.75 18.75c-4.136 0-7.5 3.364-7.5 7.5s3.364 7.5 7.5 7.5 7.5-3.364 7.5-7.5-3.364-7.5-7.5-7.5Z" fill="#fff"/></svg>